{
	"asset":{
		"generator":"Khronos glTF Blender I/O v3.5.30",
		"version":"2.0"
	},
	"extensionsUsed":[
		"KHR_materials_specular",
		"KHR_materials_ior"
	],
	"scene":0,
	"scenes":[
		{
			"name":"Scene",
			"nodes":[
				16
			]
		}
	],
	"nodes":[
		{
			"name":"Bone.012",
			"rotation":[
				0.1950692981481552,
				-1.1691923873513588e-07,
				-2.3254070669054272e-08,
				0.9807894825935364
			],
			"scale":[
				1,
				1,
				0.9999999403953552
			],
			"translation":[
				4.963083675318166e-24,
				0.3528427481651306,
				-1.1920928955078125e-07
			]
		},
		{
			"children":[
				0
			],
			"name":"Bone.001",
			"rotation":[
				-0.4052090346813202,
				1.93147202426724e-17,
				9.200735743691615e-18,
				0.9142240881919861
			],
			"scale":[
				1,
				1,
				1.0000001192092896
			],
			"translation":[
				2.481541837659083e-24,
				1.3593714237213135,
				1.4901161193847656e-08
			]
		},
		{
			"children":[
				1
			],
			"name":"Bone",
			"rotation":[
				-0.5670374035835266,
				3.0231486007677736e-17,
				3.0231486007677736e-17,
				0.8236920237541199
			],
			"translation":[
				7.290977045067769e-17,
				0.32835641503334045,
				-0.32178929448127747
			]
		},
		{
			"name":"Bone.005_L.001",
			"rotation":[
				-0.10829119384288788,
				-0.1503305733203888,
				0.5837541222572327,
				0.7905092239379883
			],
			"scale":[
				0.9999998211860657,
				0.9999998807907104,
				0.9999998807907104
			],
			"translation":[
				-1.0244548320770264e-08,
				0.14895084500312805,
				-1.3969838619232178e-09
			]
		},
		{
			"children":[
				3
			],
			"name":"Bone.005_L",
			"rotation":[
				0.04630201309919357,
				-5.463944603434356e-07,
				-0.5851093530654907,
				0.8096315860748291
			],
			"translation":[
				7.141767612137053e-15,
				0.43783947825431824,
				-7.450580596923828e-09
			]
		},
		{
			"name":"Bone.005_R.001",
			"rotation":[
				-0.10829120129346848,
				0.15033060312271118,
				-0.5837540626525879,
				0.7905092835426331
			],
			"scale":[
				0.9999998807907104,
				1,
				0.9999998807907104
			],
			"translation":[
				1.4901161193847656e-08,
				0.14895085990428925,
				-4.656612873077393e-10
			]
		},
		{
			"children":[
				5
			],
			"name":"Bone.005_R",
			"rotation":[
				0.04630150645971298,
				-1.6219289022956218e-07,
				0.5851093530654907,
				0.8096315860748291
			],
			"scale":[
				1.0000001192092896,
				1,
				1
			],
			"translation":[
				7.141767612137053e-15,
				0.43783947825431824,
				-7.450580596923828e-09
			]
		},
		{
			"children":[
				4,
				6
			],
			"name":"Bone.005",
			"rotation":[
				-0.6967732906341553,
				-8.915322364903833e-13,
				-6.035818955751893e-07,
				0.7172914743423462
			],
			"scale":[
				1,
				0.9999999403953552,
				0.9999999403953552
			],
			"translation":[
				3.634025453605125e-17,
				0.4923122525215149,
				1.1175870895385742e-08
			]
		},
		{
			"name":"Bone.007",
			"rotation":[
				-0.13338543474674225,
				8.318403257878693e-12,
				-2.42751298173971e-07,
				0.9910642504692078
			],
			"scale":[
				1,
				0.9999998807907104,
				0.9999999403953552
			],
			"translation":[
				-7.722877106699708e-15,
				1.046006441116333,
				1.4901161193847656e-08
			]
		},
		{
			"children":[
				8
			],
			"name":"Bone.006",
			"rotation":[
				0.06897775083780289,
				4.7569457706231333e-07,
				9.264292799571194e-08,
				0.9976181983947754
			],
			"scale":[
				1,
				0.9999999403953552,
				0.9999999403953552
			],
			"translation":[
				3.634025453605125e-17,
				0.4923122525215149,
				1.1175870895385742e-08
			]
		},
		{
			"children":[
				7,
				9
			],
			"name":"Bone.004",
			"rotation":[
				3.44118916473235e-07,
				-0.6072625517845154,
				-0.7945012450218201,
				2.630210644838371e-07
			],
			"scale":[
				1,
				1.000000238418579,
				1.0000029802322388
			],
			"translation":[
				7.290977045067769e-17,
				0.32835641503334045,
				-0.32178929448127747
			]
		},
		{
			"name":"Bone_L",
			"rotation":[
				-0.489484965801239,
				-0.5517616271972656,
				-0.48224109411239624,
				0.4726596772670746
			],
			"scale":[
				1,
				0.9999999403953552,
				1
			],
			"translation":[
				7.290977045067769e-17,
				0.32835641503334045,
				-0.32178929448127747
			]
		},
		{
			"name":"Bone_R",
			"rotation":[
				-0.489484965801239,
				0.5517616271972656,
				0.48224109411239624,
				0.4726596772670746
			],
			"scale":[
				1,
				0.9999999403953552,
				1
			],
			"translation":[
				7.290977045067769e-17,
				0.32835641503334045,
				-0.32178929448127747
			]
		},
		{
			"mesh":0,
			"name":"Beak",
			"skin":0
		},
		{
			"mesh":1,
			"name":"Body",
			"skin":0
		},
		{
			"mesh":2,
			"name":"Eyes",
			"skin":0
		},
		{
			"children":[
				13,
				14,
				15,
				2,
				10,
				11,
				12
			],
			"name":"Bird"
		}
	],
	"materials":[
		{
			"doubleSided":true,
			"name":"Accent 2",
			"pbrMetallicRoughness":{
				"baseColorFactor":[
					0.8000006675720215,
					0.6482135057449341,
					0.2997279167175293,
					1
				],
				"metallicFactor":0,
				"roughnessFactor":0.5
			}
		},
		{
			"doubleSided":true,
			"name":"Base",
			"pbrMetallicRoughness":{
				"baseColorTexture":{
					"index":0
				},
				"metallicFactor":0
			}
		},
		{
			"doubleSided":true,
			"extensions":{
				"KHR_materials_specular":{
					"specularColorFactor":[
						0.948543059910952,
						0.948543059910952,
						0.948543059910952
					]
				},
				"KHR_materials_ior":{
					"ior":1.4500000476837158
				}
			},
			"name":"Eye",
			"pbrMetallicRoughness":{
				"baseColorFactor":[
					0,
					0,
					0,
					1
				],
				"metallicFactor":0
			}
		}
	],
	"meshes":[
		{
			"name":"Mesh",
			"primitives":[
				{
					"attributes":{
						"POSITION":0,
						"TEXCOORD_0":1,
						"NORMAL":2,
						"JOINTS_0":3,
						"WEIGHTS_0":4
					},
					"indices":5,
					"material":0
				}
			]
		},
		{
			"name":"Mesh",
			"primitives":[
				{
					"attributes":{
						"POSITION":7,
						"TEXCOORD_0":8,
						"NORMAL":9,
						"JOINTS_0":10,
						"WEIGHTS_0":11
					},
					"indices":12,
					"material":1
				}
			]
		},
		{
			"name":"Sphere",
			"primitives":[
				{
					"attributes":{
						"POSITION":13,
						"TEXCOORD_0":14,
						"NORMAL":15,
						"JOINTS_0":16,
						"WEIGHTS_0":17
					},
					"indices":18,
					"material":2
				}
			]
		}
	],
	"textures":[
		{
			"sampler":0,
			"source":0
		}
	],
	"images":[
		{
			"bufferView":13,
			"mimeType":"image/png",
			"name":"BirdBody"
		}
	],
	"skins":[
		{
			"inverseBindMatrices":6,
			"joints":[
				2,
				1,
				0,
				10,
				7,
				4,
				3,
				6,
				5,
				9,
				8,
				11,
				12
			],
			"name":"Bird"
		}
	],
	"accessors":[
		{
			"bufferView":0,
			"componentType":5126,
			"count":42,
			"max":[
				0.038127705454826355,
				0.6805444955825806,
				-2.0962343215942383
			],
			"min":[
				-0.038127705454826355,
				0.6132138967514038,
				-2.236283540725708
			],
			"type":"VEC3"
		},
		{
			"bufferView":1,
			"componentType":5126,
			"count":42,
			"type":"VEC2"
		},
		{
			"bufferView":2,
			"componentType":5126,
			"count":42,
			"type":"VEC3"
		},
		{
			"bufferView":3,
			"componentType":5121,
			"count":42,
			"type":"VEC4"
		},
		{
			"bufferView":4,
			"componentType":5126,
			"count":42,
			"type":"VEC4"
		},
		{
			"bufferView":5,
			"componentType":5123,
			"count":192,
			"type":"SCALAR"
		},
		{
			"bufferView":6,
			"componentType":5126,
			"count":13,
			"type":"MAT4"
		},
		{
			"bufferView":7,
			"componentType":5126,
			"count":4815,
			"max":[
				1.4034955501556396,
				1.2105430364608765,
				2.2545363903045654
			],
			"min":[
				-1.4034955501556396,
				-0.8837401866912842,
				-2.1277151107788086
			],
			"type":"VEC3"
		},
		{
			"bufferView":8,
			"componentType":5126,
			"count":4815,
			"type":"VEC2"
		},
		{
			"bufferView":9,
			"componentType":5126,
			"count":4815,
			"type":"VEC3"
		},
		{
			"bufferView":10,
			"componentType":5121,
			"count":4815,
			"type":"VEC4"
		},
		{
			"bufferView":11,
			"componentType":5126,
			"count":4815,
			"type":"VEC4"
		},
		{
			"bufferView":12,
			"componentType":5123,
			"count":21072,
			"type":"SCALAR"
		},
		{
			"bufferView":14,
			"componentType":5126,
			"count":104,
			"max":[
				0.28862428665161133,
				0.9409078359603882,
				-1.5448482036590576
			],
			"min":[
				-0.28862428665161133,
				0.819633424282074,
				-1.6661226749420166
			],
			"type":"VEC3"
		},
		{
			"bufferView":15,
			"componentType":5126,
			"count":104,
			"type":"VEC2"
		},
		{
			"bufferView":16,
			"componentType":5126,
			"count":104,
			"type":"VEC3"
		},
		{
			"bufferView":17,
			"componentType":5121,
			"count":104,
			"type":"VEC4"
		},
		{
			"bufferView":18,
			"componentType":5126,
			"count":104,
			"type":"VEC4"
		},
		{
			"bufferView":19,
			"componentType":5123,
			"count":420,
			"type":"SCALAR"
		}
	],
	"bufferViews":[
		{
			"buffer":0,
			"byteLength":504,
			"byteOffset":0,
			"target":34962
		},
		{
			"buffer":0,
			"byteLength":336,
			"byteOffset":504,
			"target":34962
		},
		{
			"buffer":0,
			"byteLength":504,
			"byteOffset":840,
			"target":34962
		},
		{
			"buffer":0,
			"byteLength":168,
			"byteOffset":1344,
			"target":34962
		},
		{
			"buffer":0,
			"byteLength":672,
			"byteOffset":1512,
			"target":34962
		},
		{
			"buffer":0,
			"byteLength":384,
			"byteOffset":2184,
			"target":34963
		},
		{
			"buffer":0,
			"byteLength":832,
			"byteOffset":2568
		},
		{
			"buffer":0,
			"byteLength":57780,
			"byteOffset":3400,
			"target":34962
		},
		{
			"buffer":0,
			"byteLength":38520,
			"byteOffset":61180,
			"target":34962
		},
		{
			"buffer":0,
			"byteLength":57780,
			"byteOffset":99700,
			"target":34962
		},
		{
			"buffer":0,
			"byteLength":19260,
			"byteOffset":157480,
			"target":34962
		},
		{
			"buffer":0,
			"byteLength":77040,
			"byteOffset":176740,
			"target":34962
		},
		{
			"buffer":0,
			"byteLength":42144,
			"byteOffset":253780,
			"target":34963
		},
		{
			"buffer":0,
			"byteLength":98132,
			"byteOffset":295924
		},
		{
			"buffer":0,
			"byteLength":1248,
			"byteOffset":394056,
			"target":34962
		},
		{
			"buffer":0,
			"byteLength":832,
			"byteOffset":395304,
			"target":34962
		},
		{
			"buffer":0,
			"byteLength":1248,
			"byteOffset":396136,
			"target":34962
		},
		{
			"buffer":0,
			"byteLength":416,
			"byteOffset":397384,
			"target":34962
		},
		{
			"buffer":0,
			"byteLength":1664,
			"byteOffset":397800,
			"target":34962
		},
		{
			"buffer":0,
			"byteLength":840,
			"byteOffset":399464,
			"target":34963
		}
	],
	"samplers":[
		{
			"magFilter":9729,
			"minFilter":9987
		}
	],
	"buffers":[
		{
			"byteLength":400304,
			"uri":"data:application/octet-stream;base64,"
		}
	]
}
