<svg version="1.1" xmlns="http://www.w3.org/2000/svg" viewBox="0 0 347.43743604338397 114.94602610739796" width="1042.312308130152" height="344.83807832219384">
  <!-- svg-source:excalidraw -->
  
  <defs>
    <style class="style-fonts">
      @font-face {
        font-family: "Virgil";
        src: url("https://excalidraw.com/Virgil.woff2");
      }
      @font-face {
        font-family: "Cascadia";
        src: url("https://excalidraw.com/Cascadia.woff2");
      }
    </style>
    
  </defs>
  <g transform="translate(20.830345183353415 10) rotate(0 9.917999267578125 22.5)"><text x="0" y="0" font-family="Virgil, Segoe UI Emoji" font-size="36px" fill="#000000" text-anchor="start" style="white-space: pre;" direction="ltr" dominant-baseline="text-before-edge">H</text></g><g transform="translate(90.14455435681504 40.68597801950125) rotate(0 12.131996154785156 22.5)"><text x="0" y="0" font-family="Virgil, Segoe UI Emoji" font-size="36px" fill="#000000" text-anchor="start" style="white-space: pre;" direction="ltr" dominant-baseline="text-before-edge">E</text></g><g transform="translate(158.01471750582948 59.45857633731376) rotate(0 10.781997680664062 22.5)"><text x="0" y="0" font-family="Virgil, Segoe UI Emoji" font-size="36px" fill="#000000" text-anchor="start" style="white-space: pre;" direction="ltr" dominant-baseline="text-before-edge">L</text></g><g transform="translate(230.2170187281854 52.960369227301726) rotate(0 10.781997680664062 22.5)"><text x="0" y="0" font-family="Virgil, Segoe UI Emoji" font-size="36px" fill="#000000" text-anchor="start" style="white-space: pre;" direction="ltr" dominant-baseline="text-before-edge">L</text></g><g transform="translate(300.2532509138706 26.245517775030066) rotate(0 13.0679931640625 22.5)"><text x="0" y="0" font-family="Virgil, Segoe UI Emoji" font-size="36px" fill="#000000" text-anchor="start" style="white-space: pre;" direction="ltr" dominant-baseline="text-before-edge">O</text></g><g stroke-linecap="round" transform="translate(10 11.444046024447118) rotate(0 20.758161601427304 20.758161601427304)"><path d="M10.67 3.09 C14.39 0.64, 20.35 -1.1, 24.86 -0.21 C29.37 0.69, 34.83 4.98, 37.7 8.46 C40.57 11.94, 42.3 16.48, 42.1 20.69 C41.9 24.89, 39.63 30.25, 36.48 33.68 C33.33 37.1, 27.63 40.57, 23.22 41.23 C18.81 41.89, 13.79 39.97, 10.02 37.64 C6.24 35.3, 1.89 31.38, 0.57 27.24 C-0.76 23.09, -0.4 17.12, 2.04 12.79 C4.48 8.47, 12.31 3.26, 15.2 1.28 C18.1 -0.7, 19.3 0.55, 19.4 0.93 M11.56 1.6 C15.35 -0.35, 21.5 -0.94, 26.02 0.17 C30.54 1.29, 35.89 4.71, 38.69 8.29 C41.49 11.86, 43.18 17.1, 42.83 21.63 C42.48 26.16, 39.98 32.27, 36.59 35.48 C33.21 38.69, 27.07 40.6, 22.52 40.89 C17.96 41.18, 12.78 39.58, 9.26 37.23 C5.74 34.88, 2.53 31.04, 1.39 26.78 C0.25 22.52, 0.73 15.71, 2.41 11.68 C4.08 7.66, 9.74 4.01, 11.43 2.64 C13.12 1.27, 12.6 3.42, 12.56 3.46" stroke="#000000" stroke-width="1" fill="none"></path></g><g stroke-linecap="round" transform="translate(81.84128971624403 42.49103555006016) rotate(0 20.39715009531554 20.397150095315524)"><path d="M12.86 0.26 C16.82 -1.54, 24.09 -1.06, 28.29 0.64 C32.49 2.34, 36.03 6.56, 38.09 10.47 C40.15 14.38, 41.48 19.72, 40.63 24.09 C39.77 28.46, 36.51 34.08, 32.97 36.71 C29.44 39.34, 23.76 40.07, 19.42 39.88 C15.09 39.7, 10.14 38.29, 6.98 35.61 C3.83 32.93, 1.19 27.96, 0.5 23.8 C-0.19 19.65, 0.53 14.61, 2.84 10.7 C5.15 6.78, 12.18 2.08, 14.34 0.32 C16.51 -1.43, 15.7 -0.24, 15.85 0.15 M10.42 1.8 C13.68 -0.36, 19.59 -1.02, 24.03 0 C28.48 1.02, 34.54 4.39, 37.1 7.92 C39.65 11.45, 39.73 16.98, 39.36 21.2 C39 25.42, 37.94 29.91, 34.9 33.22 C31.86 36.53, 25.4 40.28, 21.14 41.06 C16.89 41.83, 12.87 40.34, 9.38 37.87 C5.89 35.41, 1.39 30.39, 0.2 26.26 C-1 22.13, 0.33 17.29, 2.22 13.09 C4.11 8.9, 10.1 3.08, 11.54 1.1 C12.98 -0.87, 10.82 0.64, 10.86 1.25" stroke="#000000" stroke-width="1" fill="none"></path></g><g stroke-linecap="round" transform="translate(144.29628027358183 58.375541818978434) rotate(0 23.285242144209747 23.28524214420976)"><path d="M19.31 1.31 C23.89 0.2, 30.68 0.98, 34.88 3.37 C39.08 5.76, 42.78 10.95, 44.53 15.66 C46.27 20.37, 46.92 26.91, 45.35 31.63 C43.77 36.35, 39.53 41.39, 35.07 43.97 C30.6 46.55, 23.56 48.12, 18.56 47.13 C13.56 46.13, 8.28 41.92, 5.08 38.02 C1.87 34.12, -0.81 28.76, -0.67 23.73 C-0.54 18.69, 2.11 11.81, 5.88 7.8 C9.66 3.79, 18.68 0.8, 21.99 -0.35 C25.3 -1.51, 25.76 0.54, 25.73 0.87 M17.3 -0.58 C21.8 -1.73, 29.61 1.61, 34.28 4.23 C38.96 6.85, 43.74 10.75, 45.36 15.13 C46.98 19.51, 45.72 25.86, 44 30.52 C42.28 35.18, 39.06 40.34, 35.04 43.07 C31.02 45.8, 24.92 47.49, 19.89 46.88 C14.86 46.28, 8.03 43.42, 4.86 39.43 C1.68 35.45, 1.02 28.2, 0.83 22.99 C0.64 17.78, 0.98 12.1, 3.72 8.16 C6.45 4.21, 14.72 0.57, 17.24 -0.66 C19.77 -1.88, 18.7 0.06, 18.88 0.81" stroke="#000000" stroke-width="1" fill="none"></path></g><g stroke-linecap="round" transform="translate(221.19173107539098 53.32138073341352) rotate(0 21.119173107539098 21.119173107539083)"><path d="M23.09 0.46 C27.63 0.66, 33.94 2.52, 37 5.74 C40.07 8.97, 41.14 15.09, 41.49 19.8 C41.83 24.5, 41.59 30.48, 39.07 33.97 C36.55 37.46, 30.93 39.77, 26.36 40.72 C21.79 41.68, 15.76 41.57, 11.65 39.7 C7.55 37.83, 3.48 33.73, 1.74 29.52 C0 25.31, -0.12 18.67, 1.24 14.43 C2.6 10.19, 5.98 6.53, 9.89 4.06 C13.8 1.58, 21.91 0.18, 24.7 -0.43 C27.48 -1.04, 26.68 -0.09, 26.6 0.42 M19.12 0 C23.55 -0.71, 30.24 0.93, 34.12 3.92 C38 6.91, 41.3 13.37, 42.4 17.95 C43.5 22.53, 43.02 27.71, 40.71 31.4 C38.4 35.1, 33.03 38.47, 28.52 40.14 C24.01 41.81, 18 42.74, 13.67 41.44 C9.35 40.13, 4.83 35.99, 2.57 32.33 C0.31 28.66, -0.41 24.11, 0.11 19.43 C0.62 14.75, 2.1 7.69, 5.66 4.24 C9.22 0.78, 18.93 -0.54, 21.47 -1.29 C24.02 -2.03, 21.2 -0.94, 20.93 -0.23" stroke="#000000" stroke-width="1" fill="none"></path></g><g stroke-linecap="round" transform="translate(286.53481368162306 21.191356689465152) rotate(0 25.451311180880452 25.451311180880452)"><path d="M25.53 0.55 C30.53 0.12, 36.8 1.66, 40.87 4.87 C44.95 8.08, 48.98 14.28, 49.98 19.81 C50.99 25.33, 49.5 33.19, 46.91 38.02 C44.31 42.85, 39.25 46.99, 34.4 48.78 C29.55 50.57, 22.94 50.46, 17.8 48.76 C12.66 47.06, 6.54 43.06, 3.58 38.57 C0.62 34.08, -1 27.12, 0.02 21.82 C1.05 16.52, 5 10.45, 9.75 6.76 C14.5 3.07, 25.02 0.76, 28.53 -0.3 C32.03 -1.35, 30.86 0.02, 30.78 0.43 M23.15 -1.28 C28.53 -2.23, 37.58 0.53, 42.22 3.96 C46.86 7.39, 50.12 13.6, 51 19.29 C51.89 24.98, 50.4 33.35, 47.55 38.09 C44.71 42.84, 38.73 45.91, 33.94 47.75 C29.15 49.59, 23.79 50.36, 18.83 49.12 C13.88 47.88, 7.41 44.57, 4.2 40.3 C0.99 36.03, -1.15 28.91, -0.42 23.53 C0.31 18.15, 4.32 11.78, 8.58 8.02 C12.83 4.27, 22.68 2.05, 25.1 1 C27.52 -0.05, 23.42 1.71, 23.1 1.73" stroke="#000000" stroke-width="1" fill="none"></path></g><g stroke-linecap="round"><g transform="translate(48.98924266007214 41.76901253783657) rotate(0 17.23684832978887 8.49184549206636)"><path d="M0.68 -1.04 C6.5 1.93, 29.2 13.75, 34.9 16.9 M-0.43 1.03 C5.3 4.21, 28.46 14.98, 34.27 18.02" stroke="#000000" stroke-width="1" fill="none"></path></g></g><mask></mask><g stroke-linecap="round"><g transform="translate(121.91356689465158 68.12285248399647) rotate(0 11.846582422350423 5.595513191934941)"><path d="M-0.47 -0.62 C3.2 1.28, 17.81 8.43, 21.77 10.21 M1.49 1.68 C5.57 3.89, 20.57 10.18, 24.16 11.81" stroke="#000000" stroke-width="1" fill="none"></path></g></g><mask></mask><g stroke-linecap="round"><g transform="translate(190.5057530558896 81.84128971624409) rotate(0 16.099430286363088 -0.7737248017102019)"><path d="M-0.25 -0.79 C4.62 -1.25, 25.08 -2.76, 30.19 -2.95 M1.82 1.4 C6.98 1.1, 27.87 -1.51, 32.45 -1.82" stroke="#000000" stroke-width="1" fill="none"></path></g></g><mask></mask><g stroke-linecap="round"><g transform="translate(264.1521003026927 70.64993302677891) rotate(0 12.297701267469108 -6.516922620662143)"><path d="M-1.14 0.34 C3.26 -1.92, 21.23 -11.25, 25.74 -13.37 M0.46 -0.53 C4.78 -2.7, 20.7 -10.64, 24.84 -12.41" stroke="#000000" stroke-width="1" fill="none"></path></g></g><mask></mask></svg>