{
	"asset":{
		"generator":"Khronos glTF Blender I/O v3.5.30",
		"version":"2.0"
	},
	"extensionsUsed":[
		"KHR_materials_emissive_strength"
	],
	"scene":0,
	"scenes":[
		{
			"name":"Scene",
			"nodes":[
				0
			]
		}
	],
	"nodes":[
		{
			"mesh":0,
			"name":"TV"
		}
	],
	"materials":[
		{
			"doubleSided":true,
			"name":"Shell",
			"pbrMetallicRoughness":{
				"baseColorFactor":[
					0.39311209321022034,
					0.32535186409950256,
					0.18474026024341583,
					1
				],
				"metallicFactor":0,
				"roughnessFactor":0.5
			}
		},
		{
			"doubleSided":true,
			"emissiveFactor":[
				0.8491664528846741,
				0.0654897466301918,
				1
			],
			"extensions":{
				"KHR_materials_emissive_strength":{
					"emissiveStrength":7.399999618530273
				}
			},
			"name":"Screen",
			"pbrMetallicRoughness":{
				"baseColorFactor":[
					0,
					0,
					0,
					1
				],
				"metallicFactor":0,
				"roughnessFactor":0.5
			}
		},
		{
			"doubleSided":true,
			"name":"EngineShell",
			"pbrMetallicRoughness":{
				"metallicFactor":0,
				"roughnessFactor":0.5
			}
		},
		{
			"doubleSided":true,
			"emissiveFactor":[
				0.04359794868315587,
				0.8888067445079937,
				1
			],
			"extensions":{
				"KHR_materials_emissive_strength":{
					"emissiveStrength":29.282648652791977
				}
			},
			"name":"EngineCore",
			"pbrMetallicRoughness":{
				"baseColorFactor":[
					0,
					0,
					0,
					1
				],
				"metallicFactor":0,
				"roughnessFactor":0.5
			}
		}
	],
	"meshes":[
		{
			"name":"Cube",
			"primitives":[
				{
					"attributes":{
						"POSITION":0,
						"TEXCOORD_0":1,
						"NORMAL":2
					},
					"indices":3,
					"material":0
				},
				{
					"attributes":{
						"POSITION":4,
						"TEXCOORD_0":5,
						"NORMAL":6
					},
					"indices":7,
					"material":1
				},
				{
					"attributes":{
						"POSITION":8,
						"TEXCOORD_0":9,
						"NORMAL":10
					},
					"indices":11,
					"material":2
				},
				{
					"attributes":{
						"POSITION":12,
						"TEXCOORD_0":13,
						"NORMAL":14
					},
					"indices":15,
					"material":3
				}
			]
		}
	],
	"accessors":[
		{
			"bufferView":0,
			"componentType":5126,
			"count":150,
			"max":[
				0.32986748218536377,
				0.32986748218536377,
				0.32986748218536377
			],
			"min":[
				-0.32986748218536377,
				-0.32986748218536377,
				-0.32986748218536377
			],
			"type":"VEC3"
		},
		{
			"bufferView":1,
			"componentType":5126,
			"count":150,
			"type":"VEC2"
		},
		{
			"bufferView":2,
			"componentType":5126,
			"count":150,
			"type":"VEC3"
		},
		{
			"bufferView":3,
			"componentType":5123,
			"count":606,
			"type":"SCALAR"
		},
		{
			"bufferView":4,
			"componentType":5126,
			"count":4,
			"max":[
				-0.2285073697566986,
				0.18463896214962006,
				0.18463896214962006
			],
			"min":[
				-0.2285073697566986,
				-0.18463896214962006,
				-0.18463896214962006
			],
			"type":"VEC3"
		},
		{
			"bufferView":5,
			"componentType":5126,
			"count":4,
			"type":"VEC2"
		},
		{
			"bufferView":6,
			"componentType":5126,
			"count":4,
			"type":"VEC3"
		},
		{
			"bufferView":7,
			"componentType":5123,
			"count":6,
			"type":"SCALAR"
		},
		{
			"bufferView":8,
			"componentType":5126,
			"count":1064,
			"max":[
				0.2456592321395874,
				-0.30354443192481995,
				0.2431487739086151
			],
			"min":[
				-0.2456592172384262,
				-0.4329240620136261,
				-0.2431487888097763
			],
			"type":"VEC3"
		},
		{
			"bufferView":9,
			"componentType":5126,
			"count":1064,
			"type":"VEC2"
		},
		{
			"bufferView":10,
			"componentType":5126,
			"count":1064,
			"type":"VEC3"
		},
		{
			"bufferView":11,
			"componentType":5123,
			"count":3456,
			"type":"SCALAR"
		},
		{
			"bufferView":12,
			"componentType":5126,
			"count":96,
			"max":[
				0.19914132356643677,
				-0.4154983162879944,
				0.19663086533546448
			],
			"min":[
				-0.19914133846759796,
				-0.4154983460903168,
				-0.19663088023662567
			],
			"type":"VEC3"
		},
		{
			"bufferView":13,
			"componentType":5126,
			"count":96,
			"type":"VEC2"
		},
		{
			"bufferView":14,
			"componentType":5126,
			"count":96,
			"type":"VEC3"
		},
		{
			"bufferView":15,
			"componentType":5123,
			"count":264,
			"type":"SCALAR"
		}
	],
	"bufferViews":[
		{
			"buffer":0,
			"byteLength":1800,
			"byteOffset":0,
			"target":34962
		},
		{
			"buffer":0,
			"byteLength":1200,
			"byteOffset":1800,
			"target":34962
		},
		{
			"buffer":0,
			"byteLength":1800,
			"byteOffset":3000,
			"target":34962
		},
		{
			"buffer":0,
			"byteLength":1212,
			"byteOffset":4800,
			"target":34963
		},
		{
			"buffer":0,
			"byteLength":48,
			"byteOffset":6012,
			"target":34962
		},
		{
			"buffer":0,
			"byteLength":32,
			"byteOffset":6060,
			"target":34962
		},
		{
			"buffer":0,
			"byteLength":48,
			"byteOffset":6092,
			"target":34962
		},
		{
			"buffer":0,
			"byteLength":12,
			"byteOffset":6140,
			"target":34963
		},
		{
			"buffer":0,
			"byteLength":12768,
			"byteOffset":6152,
			"target":34962
		},
		{
			"buffer":0,
			"byteLength":8512,
			"byteOffset":18920,
			"target":34962
		},
		{
			"buffer":0,
			"byteLength":12768,
			"byteOffset":27432,
			"target":34962
		},
		{
			"buffer":0,
			"byteLength":6912,
			"byteOffset":40200,
			"target":34963
		},
		{
			"buffer":0,
			"byteLength":1152,
			"byteOffset":47112,
			"target":34962
		},
		{
			"buffer":0,
			"byteLength":768,
			"byteOffset":48264,
			"target":34962
		},
		{
			"buffer":0,
			"byteLength":1152,
			"byteOffset":49032,
			"target":34962
		},
		{
			"buffer":0,
			"byteLength":528,
			"byteOffset":50184,
			"target":34963
		}
	],
	"buffers":[
		{
			"byteLength":50712,
			"uri":"data:application/octet-stream;base64,"
		}
	]
}
