{
	"asset":{
		"generator":"Khronos glTF Blender I/O v3.5.30",
		"version":"2.0"
	},
	"extensionsUsed":[
		"KHR_materials_emissive_strength"
	],
	"scene":0,
	"scenes":[
		{
			"name":"Scene",
			"nodes":[
				0
			]
		}
	],
	"nodes":[
		{
			"mesh":0,
			"name":"Body.001",
			"scale":[
				1.4091488122940063,
				1.4091488122940063,
				1.4091488122940063
			]
		}
	],
	"materials":[
		{
			"doubleSided":true,
			"name":"Metal",
			"pbrMetallicRoughness":{
				"baseColorFactor":[
					0.0029866958502680063,
					0.025388643145561218,
					0.0029208988416939974,
					1
				],
				"metallicFactor":0
			}
		},
		{
			"doubleSided":true,
			"emissiveFactor":[
				0.20507746934890747,
				1,
				0.9130988717079163
			],
			"extensions":{
				"KHR_materials_emissive_strength":{
					"emissiveStrength":57.99999237060547
				}
			},
			"name":"Repulsor",
			"pbrMetallicRoughness":{
				"baseColorFactor":[
					0.20507746934890747,
					1,
					0.9130988717079163,
					1
				],
				"metallicFactor":0,
				"roughnessFactor":0.5
			}
		},
		{
			"doubleSided":true,
			"emissiveFactor":[
				1,
				0.3816617426438575,
				0.2478646904041637
			],
			"extensions":{
				"KHR_materials_emissive_strength":{
					"emissiveStrength":52.261321042291456
				}
			},
			"name":"Eye",
			"pbrMetallicRoughness":{
				"baseColorFactor":[
					0.799102783203125,
					0.06883720308542252,
					0.5258757472038269,
					1
				],
				"metallicFactor":0,
				"roughnessFactor":0.5
			}
		}
	],
	"meshes":[
		{
			"name":"Cube.004",
			"primitives":[
				{
					"attributes":{
						"POSITION":0,
						"TEXCOORD_0":1,
						"NORMAL":2
					},
					"indices":3,
					"material":0
				},
				{
					"attributes":{
						"POSITION":4,
						"TEXCOORD_0":5,
						"NORMAL":6
					},
					"indices":7,
					"material":1
				},
				{
					"attributes":{
						"POSITION":8,
						"TEXCOORD_0":9,
						"NORMAL":10
					},
					"indices":11,
					"material":2
				}
			]
		}
	],
	"accessors":[
		{
			"bufferView":0,
			"componentType":5126,
			"count":615,
			"max":[
				0.3691942095756531,
				0.0894683450460434,
				0.1987229287624359
			],
			"min":[
				0,
				-0.10273213684558868,
				-0.19089557230472565
			],
			"type":"VEC3"
		},
		{
			"bufferView":1,
			"componentType":5126,
			"count":615,
			"type":"VEC2"
		},
		{
			"bufferView":2,
			"componentType":5126,
			"count":615,
			"type":"VEC3"
		},
		{
			"bufferView":3,
			"componentType":5123,
			"count":1530,
			"type":"SCALAR"
		},
		{
			"bufferView":4,
			"componentType":5126,
			"count":17,
			"max":[
				0.20784007012844086,
				0.00013770908117294312,
				0.06081150472164154
			],
			"min":[
				0,
				-0.07659872621297836,
				-0.177636981010437
			],
			"type":"VEC3"
		},
		{
			"bufferView":5,
			"componentType":5126,
			"count":17,
			"type":"VEC2"
		},
		{
			"bufferView":6,
			"componentType":5126,
			"count":17,
			"type":"VEC3"
		},
		{
			"bufferView":7,
			"componentType":5123,
			"count":42,
			"type":"SCALAR"
		},
		{
			"bufferView":8,
			"componentType":5126,
			"count":10,
			"max":[
				0.05026021599769592,
				-0.0021178964525461197,
				0.1663554310798645
			],
			"min":[
				0.0371997132897377,
				-0.012172503396868706,
				0.1663554310798645
			],
			"type":"VEC3"
		},
		{
			"bufferView":9,
			"componentType":5126,
			"count":10,
			"type":"VEC2"
		},
		{
			"bufferView":10,
			"componentType":5126,
			"count":10,
			"type":"VEC3"
		},
		{
			"bufferView":11,
			"componentType":5123,
			"count":24,
			"type":"SCALAR"
		}
	],
	"bufferViews":[
		{
			"buffer":0,
			"byteLength":7380,
			"byteOffset":0,
			"target":34962
		},
		{
			"buffer":0,
			"byteLength":4920,
			"byteOffset":7380,
			"target":34962
		},
		{
			"buffer":0,
			"byteLength":7380,
			"byteOffset":12300,
			"target":34962
		},
		{
			"buffer":0,
			"byteLength":3060,
			"byteOffset":19680,
			"target":34963
		},
		{
			"buffer":0,
			"byteLength":204,
			"byteOffset":22740,
			"target":34962
		},
		{
			"buffer":0,
			"byteLength":136,
			"byteOffset":22944,
			"target":34962
		},
		{
			"buffer":0,
			"byteLength":204,
			"byteOffset":23080,
			"target":34962
		},
		{
			"buffer":0,
			"byteLength":84,
			"byteOffset":23284,
			"target":34963
		},
		{
			"buffer":0,
			"byteLength":120,
			"byteOffset":23368,
			"target":34962
		},
		{
			"buffer":0,
			"byteLength":80,
			"byteOffset":23488,
			"target":34962
		},
		{
			"buffer":0,
			"byteLength":120,
			"byteOffset":23568,
			"target":34962
		},
		{
			"buffer":0,
			"byteLength":48,
			"byteOffset":23688,
			"target":34963
		}
	],
	"buffers":[
		{
			"byteLength":23736,
			"uri":"data:application/octet-stream;base64,"
		}
	]
}
