{
	"asset":{
		"generator":"Khronos glTF Blender I/O v3.5.30",
		"version":"2.0"
	},
	"extensionsUsed":[
		"KHR_materials_emissive_strength"
	],
	"scene":0,
	"scenes":[
		{
			"name":"Scene",
			"nodes":[
				0,
				1,
				2,
				3
			]
		}
	],
	"nodes":[
		{
			"mesh":0,
			"name":"Face",
			"translation":[
				0.08502767980098724,
				0.1815185248851776,
				-0.008326450362801552
			]
		},
		{
			"mesh":1,
			"name":"Cylinder",
			"translation":[
				0.08502767980098724,
				0.01880524680018425,
				-0.008326450362801552
			]
		},
		{
			"mesh":2,
			"name":"Cube.001",
			"rotation":[
				0,
				-0.25234758853912354,
				0,
				0.96763676404953
			],
			"translation":[
				0.14879845082759857,
				0.010206442326307297,
				-0.014571286737918854
			]
		},
		{
			"mesh":3,
			"name":"Cube.002",
			"translation":[
				0.08502767980098724,
				0.1815185248851776,
				-0.008326450362801552
			]
		}
	],
	"materials":[
		{
			"doubleSided":true,
			"emissiveFactor":[
				1,
				1,
				1
			],
			"extensions":{
				"KHR_materials_emissive_strength":{
					"emissiveStrength":4.099999904632568
				}
			},
			"name":"Face",
			"pbrMetallicRoughness":{
				"metallicFactor":0,
				"roughnessFactor":0.5
			}
		},
		{
			"doubleSided":true,
			"name":"Torso",
			"pbrMetallicRoughness":{
				"baseColorFactor":[
					0.03821233659982681,
					0.5495263338088989,
					1,
					1
				],
				"metallicFactor":0,
				"roughnessFactor":0.5
			}
		},
		{
			"doubleSided":true,
			"name":"Arms",
			"pbrMetallicRoughness":{
				"baseColorFactor":[
					0.25006067752838135,
					0.8078638911247253,
					1,
					1
				],
				"metallicFactor":0,
				"roughnessFactor":0.5
			}
		},
		{
			"doubleSided":true,
			"name":"Head",
			"pbrMetallicRoughness":{
				"baseColorFactor":[
					0.01817932538688183,
					0.36580371856689453,
					0.4232673645019531,
					1
				],
				"metallicFactor":0,
				"roughnessFactor":0.5
			}
		}
	],
	"meshes":[
		{
			"name":"Cube",
			"primitives":[
				{
					"attributes":{
						"POSITION":0,
						"TEXCOORD_0":1,
						"NORMAL":2
					},
					"indices":3,
					"material":0
				}
			]
		},
		{
			"name":"Cylinder",
			"primitives":[
				{
					"attributes":{
						"POSITION":4,
						"TEXCOORD_0":5,
						"NORMAL":6
					},
					"indices":7,
					"material":1
				}
			]
		},
		{
			"name":"Cube.004",
			"primitives":[
				{
					"attributes":{
						"POSITION":8,
						"TEXCOORD_0":9,
						"NORMAL":10
					},
					"indices":11,
					"material":2
				}
			]
		},
		{
			"name":"Cube.001",
			"primitives":[
				{
					"attributes":{
						"POSITION":12,
						"TEXCOORD_0":13,
						"NORMAL":14
					},
					"indices":15,
					"material":3
				}
			]
		}
	],
	"accessors":[
		{
			"bufferView":0,
			"componentType":5126,
			"count":8,
			"max":[
				0.09085816144943237,
				0.03869056701660156,
				-0.13605661690235138
			],
			"min":[
				-0.10169323533773422,
				-0.03869056701660156,
				-0.14689169824123383
			],
			"type":"VEC3"
		},
		{
			"bufferView":1,
			"componentType":5126,
			"count":8,
			"type":"VEC2"
		},
		{
			"bufferView":2,
			"componentType":5126,
			"count":8,
			"type":"VEC3"
		},
		{
			"bufferView":3,
			"componentType":5123,
			"count":12,
			"type":"SCALAR"
		},
		{
			"bufferView":4,
			"componentType":5126,
			"count":80,
			"max":[
				0.08406329900026321,
				0.12956368923187256,
				0.08406329900026321
			],
			"min":[
				-0.08406329900026321,
				-0.14573489129543304,
				-0.08406329900026321
			],
			"type":"VEC3"
		},
		{
			"bufferView":5,
			"componentType":5126,
			"count":80,
			"type":"VEC2"
		},
		{
			"bufferView":6,
			"componentType":5126,
			"count":80,
			"type":"VEC3"
		},
		{
			"bufferView":7,
			"componentType":5123,
			"count":132,
			"type":"SCALAR"
		},
		{
			"bufferView":8,
			"componentType":5126,
			"count":652,
			"max":[
				0.17845980823040009,
				0.022485237568616867,
				0.16420134902000427
			],
			"min":[
				-0.41808652877807617,
				-0.02248520217835903,
				-0.28938090801239014
			],
			"type":"VEC3"
		},
		{
			"bufferView":9,
			"componentType":5126,
			"count":652,
			"type":"VEC2"
		},
		{
			"bufferView":10,
			"componentType":5126,
			"count":652,
			"type":"VEC3"
		},
		{
			"bufferView":11,
			"componentType":5123,
			"count":1272,
			"type":"SCALAR"
		},
		{
			"bufferView":12,
			"componentType":5126,
			"count":168,
			"max":[
				0.15772677958011627,
				0.06977131217718124,
				0.15772677958011627
			],
			"min":[
				-0.15772677958011627,
				-0.06977131217718124,
				-0.15772677958011627
			],
			"type":"VEC3"
		},
		{
			"bufferView":13,
			"componentType":5126,
			"count":168,
			"type":"VEC2"
		},
		{
			"bufferView":14,
			"componentType":5126,
			"count":168,
			"type":"VEC3"
		},
		{
			"bufferView":15,
			"componentType":5123,
			"count":264,
			"type":"SCALAR"
		}
	],
	"bufferViews":[
		{
			"buffer":0,
			"byteLength":96,
			"byteOffset":0,
			"target":34962
		},
		{
			"buffer":0,
			"byteLength":64,
			"byteOffset":96,
			"target":34962
		},
		{
			"buffer":0,
			"byteLength":96,
			"byteOffset":160,
			"target":34962
		},
		{
			"buffer":0,
			"byteLength":24,
			"byteOffset":256,
			"target":34963
		},
		{
			"buffer":0,
			"byteLength":960,
			"byteOffset":280,
			"target":34962
		},
		{
			"buffer":0,
			"byteLength":640,
			"byteOffset":1240,
			"target":34962
		},
		{
			"buffer":0,
			"byteLength":960,
			"byteOffset":1880,
			"target":34962
		},
		{
			"buffer":0,
			"byteLength":264,
			"byteOffset":2840,
			"target":34963
		},
		{
			"buffer":0,
			"byteLength":7824,
			"byteOffset":3104,
			"target":34962
		},
		{
			"buffer":0,
			"byteLength":5216,
			"byteOffset":10928,
			"target":34962
		},
		{
			"buffer":0,
			"byteLength":7824,
			"byteOffset":16144,
			"target":34962
		},
		{
			"buffer":0,
			"byteLength":2544,
			"byteOffset":23968,
			"target":34963
		},
		{
			"buffer":0,
			"byteLength":2016,
			"byteOffset":26512,
			"target":34962
		},
		{
			"buffer":0,
			"byteLength":1344,
			"byteOffset":28528,
			"target":34962
		},
		{
			"buffer":0,
			"byteLength":2016,
			"byteOffset":29872,
			"target":34962
		},
		{
			"buffer":0,
			"byteLength":528,
			"byteOffset":31888,
			"target":34963
		}
	],
	"buffers":[
		{
			"byteLength":32416,
			"uri":"data:application/octet-stream;base64,"
		}
	]
}
