{
	"asset":{
		"generator":"Khronos glTF Blender I/O v3.5.30",
		"version":"2.0"
	},
	"extensionsUsed":[
		"KHR_materials_emissive_strength"
	],
	"scene":0,
	"scenes":[
		{
			"name":"Scene",
			"nodes":[
				0,
				1,
				2
			]
		}
	],
	"nodes":[
		{
			"mesh":0,
			"name":"Screen",
			"translation":[
				0.05849360674619675,
				0,
				0.18001200258731842
			]
		},
		{
			"mesh":1,
			"name":"Engines",
			"translation":[
				0.24077117443084717,
				-0.12797728180885315,
				-0.17774638533592224
			]
		},
		{
			"mesh":2,
			"name":"TV_convex_collider",
			"translation":[
				0.05849360674619675,
				0,
				0.18001200258731842
			]
		}
	],
	"materials":[
		{
			"doubleSided":true,
			"emissiveFactor":[
				0.24620084464550018,
				0.0009101422620005906,
				1
			],
			"extensions":{
				"KHR_materials_emissive_strength":{
					"emissiveStrength":13.999999046325684
				}
			},
			"name":"Screen",
			"pbrMetallicRoughness":{
				"baseColorFactor":[
					0.2007099986076355,
					0.25469744205474854,
					1,
					1
				],
				"metallicFactor":0,
				"roughnessFactor":0.5
			}
		},
		{
			"doubleSided":true,
			"name":"EngineShell",
			"pbrMetallicRoughness":{
				"metallicFactor":0,
				"roughnessFactor":0.5
			}
		},
		{
			"doubleSided":true,
			"emissiveFactor":[
				0.04359794868315587,
				0.8888067445079937,
				1
			],
			"extensions":{
				"KHR_materials_emissive_strength":{
					"emissiveStrength":29.282648652791977
				}
			},
			"name":"EngineCore",
			"pbrMetallicRoughness":{
				"baseColorFactor":[
					0,
					0,
					0,
					1
				],
				"metallicFactor":0,
				"roughnessFactor":0.5
			}
		},
		{
			"doubleSided":true,
			"name":"Shell",
			"pbrMetallicRoughness":{
				"baseColorFactor":[
					0.6151749491691589,
					0.5077175498008728,
					0.28547123074531555,
					1
				],
				"metallicFactor":0,
				"roughnessFactor":0.5
			}
		}
	],
	"meshes":[
		{
			"name":"Cube.001",
			"primitives":[
				{
					"attributes":{
						"POSITION":0,
						"TEXCOORD_0":1,
						"NORMAL":2
					},
					"indices":3,
					"material":0
				}
			]
		},
		{
			"name":"Cylinder.002",
			"primitives":[
				{
					"attributes":{
						"POSITION":4,
						"TEXCOORD_0":5,
						"NORMAL":6
					},
					"indices":7,
					"material":1
				},
				{
					"attributes":{
						"POSITION":8,
						"TEXCOORD_0":9,
						"NORMAL":10
					},
					"indices":11,
					"material":2
				}
			]
		},
		{
			"name":"Cube.002",
			"primitives":[
				{
					"attributes":{
						"POSITION":12,
						"TEXCOORD_0":13,
						"NORMAL":14
					},
					"indices":15,
					"material":3
				}
			]
		}
	],
	"accessors":[
		{
			"bufferView":0,
			"componentType":5126,
			"count":4,
			"max":[
				0.18463897705078125,
				0.18463896214962006,
				0.2285073846578598
			],
			"min":[
				-0.18463894724845886,
				-0.18463896214962006,
				0.22850735485553741
			],
			"type":"VEC3"
		},
		{
			"bufferView":1,
			"componentType":5126,
			"count":4,
			"type":"VEC2"
		},
		{
			"bufferView":2,
			"componentType":5126,
			"count":4,
			"type":"VEC3"
		},
		{
			"bufferView":3,
			"componentType":5123,
			"count":6,
			"type":"SCALAR"
		},
		{
			"bufferView":4,
			"componentType":5126,
			"count":1064,
			"max":[
				0.06468980759382248,
				0.3206443786621094,
				0.06468981504440308
			],
			"min":[
				-0.4292449355125427,
				-0.06468981504440308,
				-0.06468980759382248
			],
			"type":"VEC3"
		},
		{
			"bufferView":5,
			"componentType":5126,
			"count":1064,
			"type":"VEC2"
		},
		{
			"bufferView":6,
			"componentType":5126,
			"count":1064,
			"type":"VEC3"
		},
		{
			"bufferView":7,
			"componentType":5123,
			"count":3456,
			"type":"SCALAR"
		},
		{
			"bufferView":8,
			"componentType":5126,
			"count":96,
			"max":[
				0.018171893432736397,
				0.27412644028663635,
				-0.047264084219932556
			],
			"min":[
				-0.3827270269393921,
				-0.018171872943639755,
				-0.04726409167051315
			],
			"type":"VEC3"
		},
		{
			"bufferView":9,
			"componentType":5126,
			"count":96,
			"type":"VEC2"
		},
		{
			"bufferView":10,
			"componentType":5126,
			"count":96,
			"type":"VEC3"
		},
		{
			"bufferView":11,
			"componentType":5123,
			"count":264,
			"type":"SCALAR"
		},
		{
			"bufferView":12,
			"componentType":5126,
			"count":150,
			"max":[
				0.32986748218536377,
				0.32986748218536377,
				0.32986748218536377
			],
			"min":[
				-0.32986748218536377,
				-0.32986748218536377,
				-0.32986748218536377
			],
			"type":"VEC3"
		},
		{
			"bufferView":13,
			"componentType":5126,
			"count":150,
			"type":"VEC2"
		},
		{
			"bufferView":14,
			"componentType":5126,
			"count":150,
			"type":"VEC3"
		},
		{
			"bufferView":15,
			"componentType":5123,
			"count":606,
			"type":"SCALAR"
		}
	],
	"bufferViews":[
		{
			"buffer":0,
			"byteLength":48,
			"byteOffset":0,
			"target":34962
		},
		{
			"buffer":0,
			"byteLength":32,
			"byteOffset":48,
			"target":34962
		},
		{
			"buffer":0,
			"byteLength":48,
			"byteOffset":80,
			"target":34962
		},
		{
			"buffer":0,
			"byteLength":12,
			"byteOffset":128,
			"target":34963
		},
		{
			"buffer":0,
			"byteLength":12768,
			"byteOffset":140,
			"target":34962
		},
		{
			"buffer":0,
			"byteLength":8512,
			"byteOffset":12908,
			"target":34962
		},
		{
			"buffer":0,
			"byteLength":12768,
			"byteOffset":21420,
			"target":34962
		},
		{
			"buffer":0,
			"byteLength":6912,
			"byteOffset":34188,
			"target":34963
		},
		{
			"buffer":0,
			"byteLength":1152,
			"byteOffset":41100,
			"target":34962
		},
		{
			"buffer":0,
			"byteLength":768,
			"byteOffset":42252,
			"target":34962
		},
		{
			"buffer":0,
			"byteLength":1152,
			"byteOffset":43020,
			"target":34962
		},
		{
			"buffer":0,
			"byteLength":528,
			"byteOffset":44172,
			"target":34963
		},
		{
			"buffer":0,
			"byteLength":1800,
			"byteOffset":44700,
			"target":34962
		},
		{
			"buffer":0,
			"byteLength":1200,
			"byteOffset":46500,
			"target":34962
		},
		{
			"buffer":0,
			"byteLength":1800,
			"byteOffset":47700,
			"target":34962
		},
		{
			"buffer":0,
			"byteLength":1212,
			"byteOffset":49500,
			"target":34963
		}
	],
	"buffers":[
		{
			"byteLength":50712,
			"uri":"data:application/octet-stream;base64,"
		}
	]
}
