{
	"asset":{
		"generator":"Khronos glTF Blender I/O v3.5.30",
		"version":"2.0"
	},
	"scene":0,
	"scenes":[
		{
			"name":"Scene",
			"nodes":[
				0
			]
		}
	],
	"nodes":[
		{
			"mesh":0,
			"name":"Terrain_convex_collider"
		}
	],
	"materials":[
		{
			"doubleSided":true,
			"name":"Grass",
			"pbrMetallicRoughness":{
				"baseColorFactor":[
					0.5733497738838196,
					0.8000000715255737,
					0.27870720624923706,
					1
				],
				"metallicFactor":0,
				"roughnessFactor":0.5
			}
		}
	],
	"meshes":[
		{
			"name":"Cube",
			"primitives":[
				{
					"attributes":{
						"POSITION":0,
						"TEXCOORD_0":1,
						"NORMAL":2
					},
					"indices":3,
					"material":0
				}
			]
		}
	],
	"accessors":[
		{
			"bufferView":0,
			"componentType":5126,
			"count":89,
			"max":[
				1,
				0.28881287574768066,
				1
			],
			"min":[
				-1,
				-0.28881287574768066,
				-1
			],
			"type":"VEC3"
		},
		{
			"bufferView":1,
			"componentType":5126,
			"count":89,
			"type":"VEC2"
		},
		{
			"bufferView":2,
			"componentType":5126,
			"count":89,
			"type":"VEC3"
		},
		{
			"bufferView":3,
			"componentType":5123,
			"count":330,
			"type":"SCALAR"
		}
	],
	"bufferViews":[
		{
			"buffer":0,
			"byteLength":1068,
			"byteOffset":0,
			"target":34962
		},
		{
			"buffer":0,
			"byteLength":712,
			"byteOffset":1068,
			"target":34962
		},
		{
			"buffer":0,
			"byteLength":1068,
			"byteOffset":1780,
			"target":34962
		},
		{
			"buffer":0,
			"byteLength":660,
			"byteOffset":2848,
			"target":34963
		}
	],
	"buffers":[
		{
			"byteLength":3508,
			"uri":"data:application/octet-stream;base64,"
		}
	]
}
