{
	"asset":{
		"generator":"Khronos glTF Blender I/O v3.5.30",
		"version":"2.0"
	},
	"scene":0,
	"scenes":[
		{
			"name":"Scene",
			"nodes":[
				0
			]
		}
	],
	"nodes":[
		{
			"mesh":0,
			"name":"Stage_convex_collider",
			"translation":[
				0,
				-0.6002229452133179,
				0
			]
		}
	],
	"materials":[
		{
			"doubleSided":true,
			"name":"Stage",
			"pbrMetallicRoughness":{
				"baseColorFactor":[
					0.1079956516623497,
					0.15989144146442413,
					0.1844654381275177,
					1
				],
				"metallicFactor":0
			}
		}
	],
	"meshes":[
		{
			"name":"Cube.001",
			"primitives":[
				{
					"attributes":{
						"POSITION":0,
						"TEXCOORD_0":1,
						"NORMAL":2
					},
					"indices":3,
					"material":0
				}
			]
		}
	],
	"accessors":[
		{
			"bufferView":0,
			"componentType":5126,
			"count":212,
			"max":[
				1.849448323249817,
				0.610279381275177,
				0.9306767582893372
			],
			"min":[
				-1.849448323249817,
				-0.610279381275177,
				-1.5038552284240723
			],
			"type":"VEC3"
		},
		{
			"bufferView":1,
			"componentType":5126,
			"count":212,
			"type":"VEC2"
		},
		{
			"bufferView":2,
			"componentType":5126,
			"count":212,
			"type":"VEC3"
		},
		{
			"bufferView":3,
			"componentType":5123,
			"count":468,
			"type":"SCALAR"
		}
	],
	"bufferViews":[
		{
			"buffer":0,
			"byteLength":2544,
			"byteOffset":0,
			"target":34962
		},
		{
			"buffer":0,
			"byteLength":1696,
			"byteOffset":2544,
			"target":34962
		},
		{
			"buffer":0,
			"byteLength":2544,
			"byteOffset":4240,
			"target":34962
		},
		{
			"buffer":0,
			"byteLength":936,
			"byteOffset":6784,
			"target":34963
		}
	],
	"buffers":[
		{
			"byteLength":7720,
			"uri":"data:application/octet-stream;base64,"
		}
	]
}
