{
	"asset":{
		"generator":"Khronos glTF Blender I/O v3.5.30",
		"version":"2.0"
	},
	"scene":0,
	"scenes":[
		{
			"name":"Scene",
			"nodes":[
				0,
				1,
				2,
				3
			]
		}
	],
	"nodes":[
		{
			"mesh":0,
			"name":"Stage_convex_collider",
			"translation":[
				0,
				-0.6002229452133179,
				0
			]
		},
		{
			"mesh":1,
			"name":"SpotlightHull_convex_collider",
			"translation":[
				3.9658470153808594,
				2.866954803466797,
				2.5792908668518066
			]
		},
		{
			"mesh":2,
			"name":"SpotlightHull_convex_collider.001",
			"translation":[
				-6.428218364715576,
				3.412787437438965,
				6.152714252471924
			]
		},
		{
			"mesh":3,
			"name":"SpotlightHull_convex_collider.002",
			"translation":[
				-1.9474459886550903,
				4.096293926239014,
				-6.584122657775879
			]
		}
	],
	"materials":[
		{
			"doubleSided":true,
			"name":"Stage",
			"pbrMetallicRoughness":{
				"baseColorFactor":[
					0.1079956516623497,
					0.15989144146442413,
					0.1844654381275177,
					1
				],
				"metallicFactor":0
			}
		},
		{
			"doubleSided":true,
			"name":"SpotlightHull",
			"pbrMetallicRoughness":{
				"baseColorFactor":[
					0,
					0,
					0,
					1
				],
				"metallicFactor":0,
				"roughnessFactor":0.5
			}
		}
	],
	"meshes":[
		{
			"name":"Cube.001",
			"primitives":[
				{
					"attributes":{
						"POSITION":0,
						"TEXCOORD_0":1,
						"NORMAL":2
					},
					"indices":3,
					"material":0
				}
			]
		},
		{
			"name":"Cube.002",
			"primitives":[
				{
					"attributes":{
						"POSITION":4,
						"TEXCOORD_0":5,
						"NORMAL":6
					},
					"indices":7,
					"material":1
				}
			]
		},
		{
			"name":"Cube.003",
			"primitives":[
				{
					"attributes":{
						"POSITION":8,
						"TEXCOORD_0":9,
						"NORMAL":10
					},
					"indices":11,
					"material":1
				}
			]
		},
		{
			"name":"Cube.004",
			"primitives":[
				{
					"attributes":{
						"POSITION":12,
						"TEXCOORD_0":13,
						"NORMAL":14
					},
					"indices":15,
					"material":1
				}
			]
		}
	],
	"accessors":[
		{
			"bufferView":0,
			"componentType":5126,
			"count":226,
			"max":[
				1.8494480848312378,
				0.610279381275177,
				1.5038552284240723
			],
			"min":[
				-1.8494480848312378,
				-0.610279381275177,
				-0.9306767582893372
			],
			"type":"VEC3"
		},
		{
			"bufferView":1,
			"componentType":5126,
			"count":226,
			"type":"VEC2"
		},
		{
			"bufferView":2,
			"componentType":5126,
			"count":226,
			"type":"VEC3"
		},
		{
			"bufferView":3,
			"componentType":5123,
			"count":468,
			"type":"SCALAR"
		},
		{
			"bufferView":4,
			"componentType":5126,
			"count":200,
			"max":[
				0.4135117828845978,
				0.4049988090991974,
				0.46313273906707764
			],
			"min":[
				-0.7563740015029907,
				-0.6404520869255066,
				-0.7084063291549683
			],
			"type":"VEC3"
		},
		{
			"bufferView":5,
			"componentType":5126,
			"count":200,
			"type":"VEC2"
		},
		{
			"bufferView":6,
			"componentType":5126,
			"count":200,
			"type":"VEC3"
		},
		{
			"bufferView":7,
			"componentType":5123,
			"count":276,
			"type":"SCALAR"
		},
		{
			"bufferView":8,
			"componentType":5126,
			"count":200,
			"max":[
				0.7189726233482361,
				0.4049988389015198,
				0.42210692167282104
			],
			"min":[
				-0.4621892273426056,
				-0.6404521465301514,
				-0.7546020150184631
			],
			"type":"VEC3"
		},
		{
			"bufferView":9,
			"componentType":5126,
			"count":200,
			"type":"VEC2"
		},
		{
			"bufferView":10,
			"componentType":5126,
			"count":200,
			"type":"VEC3"
		},
		{
			"bufferView":11,
			"componentType":5123,
			"count":276,
			"type":"SCALAR"
		},
		{
			"bufferView":12,
			"componentType":5126,
			"count":200,
			"max":[
				0.7163975238800049,
				0.4049988090991974,
				0.7568257451057434
			],
			"min":[
				-0.448897123336792,
				-0.6404520869255066,
				-0.43752214312553406
			],
			"type":"VEC3"
		},
		{
			"bufferView":13,
			"componentType":5126,
			"count":200,
			"type":"VEC2"
		},
		{
			"bufferView":14,
			"componentType":5126,
			"count":200,
			"type":"VEC3"
		},
		{
			"bufferView":15,
			"componentType":5123,
			"count":276,
			"type":"SCALAR"
		}
	],
	"bufferViews":[
		{
			"buffer":0,
			"byteLength":2712,
			"byteOffset":0,
			"target":34962
		},
		{
			"buffer":0,
			"byteLength":1808,
			"byteOffset":2712,
			"target":34962
		},
		{
			"buffer":0,
			"byteLength":2712,
			"byteOffset":4520,
			"target":34962
		},
		{
			"buffer":0,
			"byteLength":936,
			"byteOffset":7232,
			"target":34963
		},
		{
			"buffer":0,
			"byteLength":2400,
			"byteOffset":8168,
			"target":34962
		},
		{
			"buffer":0,
			"byteLength":1600,
			"byteOffset":10568,
			"target":34962
		},
		{
			"buffer":0,
			"byteLength":2400,
			"byteOffset":12168,
			"target":34962
		},
		{
			"buffer":0,
			"byteLength":552,
			"byteOffset":14568,
			"target":34963
		},
		{
			"buffer":0,
			"byteLength":2400,
			"byteOffset":15120,
			"target":34962
		},
		{
			"buffer":0,
			"byteLength":1600,
			"byteOffset":17520,
			"target":34962
		},
		{
			"buffer":0,
			"byteLength":2400,
			"byteOffset":19120,
			"target":34962
		},
		{
			"buffer":0,
			"byteLength":552,
			"byteOffset":21520,
			"target":34963
		},
		{
			"buffer":0,
			"byteLength":2400,
			"byteOffset":22072,
			"target":34962
		},
		{
			"buffer":0,
			"byteLength":1600,
			"byteOffset":24472,
			"target":34962
		},
		{
			"buffer":0,
			"byteLength":2400,
			"byteOffset":26072,
			"target":34962
		},
		{
			"buffer":0,
			"byteLength":552,
			"byteOffset":28472,
			"target":34963
		}
	],
	"buffers":[
		{
			"byteLength":29024,
			"uri":"data:application/octet-stream;base64,"
		}
	]
}
